Coordinates
version=1
nRows=54
nColumns=12
inDegrees=yes

Units are S.I. units (second, meters, Newtons, ...)
Angles are in degrees

endheader
time	SC_y	SC_z	SC_x	AC_y	AC_z	AC_x	GH_y	GH_z	GH_yy	EL_x	PS_y
       0.0              -32.76          35.98          15.89           36.7         -13.99         0.2067          156.2          11.51         -149.1          121.0           16.0
   0.02501              -32.75          35.97           15.9           36.7         -13.99         0.2079          156.1          11.51         -149.0          121.0          16.01
   0.05001              -32.75          35.97           15.9           36.7         -13.98         0.2092          156.1          11.52         -149.0          121.0          16.02
   0.07502              -32.75          35.96          15.91           36.7         -13.98         0.2105          156.1          11.52         -149.0          121.0          16.02
       0.1              -32.75          35.96          15.92           36.7         -13.98         0.2119          156.1          11.52         -149.0          121.0          16.03
     0.125              -32.75          35.95          15.92          36.71         -13.98         0.2135          156.0          11.53         -148.9          121.0          16.04
      0.15              -32.74          35.94          15.93          36.71         -13.98         0.2151          156.0          11.53         -148.9          121.0          16.05
    0.1751              -32.74          35.94          15.94          36.71         -13.98         0.2168          155.9          11.54         -148.9          121.0          16.06
    0.2001              -32.74          35.93          15.95          36.71         -13.98         0.2187          155.9          11.55         -148.9          121.0          16.07
    0.2251              -32.73          35.92          15.96          36.71         -13.98         0.2207          155.9          11.55         -148.8          121.0          16.08
    0.2501              -32.73          35.91          15.97          36.71         -13.97         0.2228          155.8          11.56         -148.8          121.0          16.09
    0.2751              -32.73          35.91          15.98          36.71         -13.97         0.2251          155.7          11.57         -148.8          120.9           16.1
    0.3001              -32.72           35.9          15.99          36.72         -13.97         0.2276          155.7          11.58         -148.7          120.9          16.11
    0.3251              -32.72          35.89           16.0          36.72         -13.97         0.2303          155.6          11.59         -148.7          120.9          16.13
    0.3501              -32.71          35.87          16.02          36.72         -13.97         0.2332          155.6          11.59         -148.6          120.9          16.14
    0.3751              -32.71          35.86          16.03          36.72         -13.96         0.2363          155.5          11.61         -148.6          120.9          16.16
    0.4001               -32.7          35.85          16.05          36.73         -13.96         0.2398          155.4          11.62         -148.5          120.9          16.18
    0.4251              -32.69          35.84          16.06          36.73         -13.96         0.2435          155.3          11.63         -148.5          120.9           16.2
    0.4501              -32.69          35.82          16.08          36.73         -13.95         0.2476          155.2          11.64         -148.4          120.9          16.22
    0.4751              -32.68           35.8           16.1          36.73         -13.95          0.252          155.1          11.66         -148.3          120.9          16.24
    0.5001              -32.67          35.78          16.13          36.74         -13.95         0.2569          155.0          11.67         -148.2          120.8          16.27
    0.5252              -32.66          35.76          16.15          36.74         -13.94         0.2623          154.9          11.69         -148.2          120.8          16.29
    0.5502              -32.65          35.74          16.18          36.75         -13.94         0.2683          154.8          11.71         -148.1          120.8          16.33
    0.5752              -32.64          35.72          16.21          36.75         -13.93         0.2749          154.6          11.73         -148.0          120.8          16.36
    0.6002              -32.63          35.69          16.25          36.76         -13.93         0.2822          154.4          11.76         -147.8          120.7           16.4
    0.6252              -32.61          35.66          16.28          36.76         -13.92         0.2904          154.2          11.78         -147.7          120.7          16.44
    0.6502               -32.6          35.62          16.33          36.77         -13.91         0.2995          154.0          11.81         -147.6          120.7          16.49
    0.6752              -32.58          35.58          16.38          36.78          -13.9         0.3098          153.8          11.85         -147.4          120.6          16.54
    0.7002              -32.56          35.54          16.43          36.79          -13.9         0.3215          153.5          11.89         -147.2          120.6           16.6
    0.7252              -32.54          35.49          16.49           36.8         -13.88         0.3347          153.2          11.93         -147.0          120.6          16.67
    0.7502              -32.51          35.43          16.56          36.81         -13.87         0.3498          152.9          11.98         -146.8          120.5          16.75
    0.7752              -32.48          35.36          16.64          36.82         -13.86         0.3671          152.5          12.04         -146.5          120.4          16.84
    0.8002              -32.45          35.29          16.74          36.84         -13.84         0.3871          152.0           12.1         -146.2          120.4          16.95
    0.8252              -32.41           35.2          16.85          36.86         -13.82         0.4104          151.5          12.18         -145.8          120.3          17.07
    0.8502              -32.36           35.1          16.98          36.88          -13.8         0.4375          150.8          12.27         -145.3          120.2          17.21
    0.8753              -32.31          34.97          17.13           36.9         -13.78         0.4696          150.1          12.37         -144.8          120.1          17.38
    0.9003              -32.24          34.83          17.31          36.93         -13.75         0.5077          149.2           12.5         -144.2          119.9          17.58
    0.9253              -32.17          34.65          17.52          36.96         -13.71         0.5533          148.2          12.65         -143.5          119.8          17.82
    0.9503              -32.07          34.44          17.78          37.01         -13.67         0.6086          146.9          12.83         -142.6          119.6          18.11
    0.9753              -31.96          34.19           18.1          37.06         -13.61          0.676          145.3          13.06         -141.5          119.3          18.46
       1.0              -31.82          33.87          18.49          37.12         -13.55         0.7593          143.4          13.33         -140.2          119.0          18.89
     1.025              -31.64          33.47          18.98           37.2         -13.46         0.8632          141.0          13.67         -138.5          118.6          19.44
      1.05              -31.42          32.97          19.59           37.3         -13.36          0.994          138.0           14.1         -136.4          118.2          20.12
     1.075              -31.13          32.34          20.37          37.43         -13.23           1.16          134.2          14.65         -133.7          117.6          20.99
       1.1              -30.77          31.53          21.37          37.59         -13.06          1.373          129.2          15.36         -130.3          116.8           22.1
     1.125               -30.3          30.48          22.65           37.8         -12.84          1.646          122.9          16.26         -125.9          115.8          23.53
      1.15              -29.71          29.15          24.29          38.06         -12.56          1.995          114.9          17.41         -120.3          114.6          25.36
     1.175              -28.96          27.48          26.35           38.4         -12.21          2.434          104.7          18.85         -113.2          113.0          27.65
       1.2              -28.05          25.44          28.87           38.8         -11.78          2.969          92.39          20.62         -104.6          111.1          30.45
     1.225               -27.0          23.08          31.78          39.27         -11.29          3.588          78.08          22.66         -94.67          108.8          33.69
      1.25              -25.85          20.52          34.93          39.78         -10.75          4.259          62.59          24.88         -83.88          106.4           37.2
     1.275              -24.71          17.96          38.08           40.3         -10.22           4.93          47.09          27.09         -73.09          104.0          40.71
       1.3              -23.66          15.59          40.99          40.77         -9.726           5.55          32.78          29.13         -63.13          101.8          43.95
     1.325              -22.75          13.55           43.5          41.17         -9.299          6.085          20.43           30.9         -54.53          99.84          46.75
